<svg xmlns="http://www.w3.org/2000/svg" width="1920" height="1080" viewBox="0 0 1920 1080">
<defs>
  <marker id="arrow" viewBox="0 0 10 10" refX="8" refY="5" markerWidth="6" markerHeight="6" orient="auto-start-reverse">
    <path d="M 0 0 L 10 5 L 0 10 z" fill="#1e293b"/>
  </marker>
</defs>
<rect x="0" y="0" width="1920" height="1080" rx="0" fill="#f8fafc" stroke="#f8fafc" stroke-width="0" /><text x="70" y="70" font-size="56" font-weight="800" fill="#0f172a" text-anchor="start" font-family="Segoe UI, Inter, Arial, sans-serif"><tspan x="70" dy="0">KI-Architektur fuer OSC-Entdeckung</tspan></text><rect x="50" y="145" width="1820" height="220" rx="20" fill="#eaf4ff" stroke="#93c5fd" stroke-width="2" /><rect x="50" y="390" width="1820" height="250" rx="20" fill="#ecfdf3" stroke="#86efac" stroke-width="2" /><rect x="50" y="665" width="1820" height="355" rx="20" fill="#f3efff" stroke="#c4b5fd" stroke-width="2" /><text x="75" y="185" font-size="34" font-weight="700" fill="#0f172a" text-anchor="start" font-family="Segoe UI, Inter, Arial, sans-serif"><tspan x="75" dy="0">Phase 1: Generierung</tspan></text><text x="75" y="430" font-size="34" font-weight="700" fill="#0f172a" text-anchor="start" font-family="Segoe UI, Inter, Arial, sans-serif"><tspan x="75" dy="0">Phase 2: Surrogat-Scoring und Selektion</tspan></text><text x="75" y="705" font-size="34" font-weight="700" fill="#0f172a" text-anchor="start" font-family="Segoe UI, Inter, Arial, sans-serif"><tspan x="75" dy="0">Phase 3: QC, Retraining und RL-Feedback</tspan></text><rect x="120" y="210" width="340" height="130" rx="14" fill="#ffffff" stroke="#3b82f6" stroke-width="2" /><text x="136" y="244" font-size="30" font-weight="700" fill="#0f172a" text-anchor="start" font-family="Segoe UI, Inter, Arial, sans-serif"><tspan x="136" dy="0">1) Datensatz</tspan></text><text x="136" y="282" font-size="20" font-weight="450" fill="#334155" text-anchor="start" font-family="Segoe UI, Inter, Arial, sans-serif"><tspan x="136" dy="0">OPV + QC Labels</tspan><tspan x="136" dy="25.0">SMILES/MOL + Split</tspan></text><rect x="520" y="210" width="340" height="130" rx="14" fill="#ffffff" stroke="#3b82f6" stroke-width="2" /><text x="536" y="244" font-size="30" font-weight="700" fill="#0f172a" text-anchor="start" font-family="Segoe UI, Inter, Arial, sans-serif"><tspan x="536" dy="0">2) JT-VAE Generator</tspan></text><text x="536" y="282" font-size="20" font-weight="450" fill="#334155" text-anchor="start" font-family="Segoe UI, Inter, Arial, sans-serif"><tspan x="536" dy="0">Sampling neuer Molekuele</tspan><tspan x="536" dy="25.0">Validitaet + Diversity</tspan></text><rect x="920" y="210" width="420" height="130" rx="14" fill="#ffffff" stroke="#3b82f6" stroke-width="2" /><text x="936" y="244" font-size="30" font-weight="700" fill="#0f172a" text-anchor="start" font-family="Segoe UI, Inter, Arial, sans-serif"><tspan x="936" dy="0">3) Kandidaten-Pool</tspan></text><text x="936" y="282" font-size="20" font-weight="450" fill="#334155" text-anchor="start" font-family="Segoe UI, Inter, Arial, sans-serif"><tspan x="936" dy="0">Canonical SMILES</tspan><tspan x="936" dy="25.0">Basisfilter + Duplikat-Check</tspan></text><rect x="220" y="460" width="320" height="145" rx="14" fill="#ffffff" stroke="#16a34a" stroke-width="2" /><text x="236" y="494" font-size="30" font-weight="700" fill="#0f172a" text-anchor="start" font-family="Segoe UI, Inter, Arial, sans-serif"><tspan x="236" dy="0">4) Full SchNet Primary</tspan></text><text x="236" y="532" font-size="20" font-weight="450" fill="#334155" text-anchor="start" font-family="Segoe UI, Inter, Arial, sans-serif"><tspan x="236" dy="0">HOMO, LUMO, Gap</tspan><tspan x="236" dy="25.0">Mean + Unsicherheit</tspan></text><rect x="580" y="460" width="320" height="145" rx="14" fill="#ffffff" stroke="#16a34a" stroke-width="2" /><text x="596" y="494" font-size="30" font-weight="700" fill="#0f172a" text-anchor="start" font-family="Segoe UI, Inter, Arial, sans-serif"><tspan x="596" dy="0">5) Full SchNet Optical</tspan></text><text x="596" y="532" font-size="20" font-weight="450" fill="#334155" text-anchor="start" font-family="Segoe UI, Inter, Arial, sans-serif"><tspan x="596" dy="0">lambda_max, oscillator f</tspan><tspan x="596" dy="25.0">Mean + Unsicherheit</tspan></text><rect x="940" y="460" width="340" height="145" rx="14" fill="#ffffff" stroke="#16a34a" stroke-width="2" /><text x="956" y="494" font-size="30" font-weight="700" fill="#0f172a" text-anchor="start" font-family="Segoe UI, Inter, Arial, sans-serif"><tspan x="956" dy="0">6) Multi-Objective Score</tspan></text><text x="956" y="532" font-size="20" font-weight="450" fill="#334155" text-anchor="start" font-family="Segoe UI, Inter, Arial, sans-serif"><tspan x="956" dy="0">Mode: red | blue | general</tspan><tspan x="956" dy="25.0">Acquisition + Risk + Diversity</tspan></text><rect x="1320" y="460" width="500" height="145" rx="14" fill="#ffffff" stroke="#16a34a" stroke-width="2" /><text x="1336" y="494" font-size="30" font-weight="700" fill="#0f172a" text-anchor="start" font-family="Segoe UI, Inter, Arial, sans-serif"><tspan x="1336" dy="0">7) Top-K Active Learning</tspan></text><text x="1336" y="532" font-size="20" font-weight="450" fill="#334155" text-anchor="start" font-family="Segoe UI, Inter, Arial, sans-serif"><tspan x="1336" dy="0">Waehlt Query-Kandidaten</tspan><tspan x="1336" dy="25.0">fuer High-Fidelity QC</tspan></text><rect x="1260" y="740" width="530" height="155" rx="14" fill="#ffffff" stroke="#7c3aed" stroke-width="2" /><text x="1276" y="774" font-size="30" font-weight="700" fill="#0f172a" text-anchor="start" font-family="Segoe UI, Inter, Arial, sans-serif"><tspan x="1276" dy="0">8) QC (ORCA TD-DFT)</tspan></text><text x="1276" y="812" font-size="20" font-weight="450" fill="#334155" text-anchor="start" font-family="Segoe UI, Inter, Arial, sans-serif"><tspan x="1276" dy="0">Berechnet verlassliche Labels</tspan><tspan x="1276" dy="25.0">u.a. lambda_max und oscillator f</tspan></text><rect x="740" y="740" width="420" height="155" rx="14" fill="#ffffff" stroke="#7c3aed" stroke-width="2" /><text x="756" y="774" font-size="30" font-weight="700" fill="#0f172a" text-anchor="start" font-family="Segoe UI, Inter, Arial, sans-serif"><tspan x="756" dy="0">9) Retraining Surrogates</tspan></text><text x="756" y="812" font-size="20" font-weight="450" fill="#334155" text-anchor="start" font-family="Segoe UI, Inter, Arial, sans-serif"><tspan x="756" dy="0">Update von Primary + Optical</tspan><tspan x="756" dy="25.0">Bessere Kalibrierung</tspan></text><rect x="210" y="740" width="420" height="155" rx="14" fill="#ffffff" stroke="#7c3aed" stroke-width="2" /><text x="226" y="774" font-size="30" font-weight="700" fill="#0f172a" text-anchor="start" font-family="Segoe UI, Inter, Arial, sans-serif"><tspan x="226" dy="0">10) RL-Update Generator</tspan></text><text x="226" y="812" font-size="20" font-weight="450" fill="#334155" text-anchor="start" font-family="Segoe UI, Inter, Arial, sans-serif"><tspan x="226" dy="0">Reward aus Score + QC</tspan><tspan x="226" dy="25.0">REINFORCE / PG / PPO</tspan></text><line x1="460" y1="275" x2="520" y2="275" stroke="#1e293b" stroke-width="2" marker-end="url(#arrow)" /><line x1="860" y1="275" x2="920" y2="275" stroke="#1e293b" stroke-width="2" marker-end="url(#arrow)" /><polyline points="1130,340 1130,454 380,454 380,460" fill="none" stroke="#1e293b" stroke-width="2" marker-end="url(#arrow)" /><line x1="540" y1="520" x2="580" y2="520" stroke="#1e293b" stroke-width="2" marker-end="url(#arrow)" /><line x1="900" y1="520" x2="940" y2="520" stroke="#1e293b" stroke-width="2" marker-end="url(#arrow)" /><line x1="1280" y1="520" x2="1320" y2="520" stroke="#1e293b" stroke-width="2" marker-end="url(#arrow)" /><polyline points="1570,605 1570,700 1525,700 1525,740" fill="none" stroke="#1e293b" stroke-width="2" marker-end="url(#arrow)" /><line x1="1260" y1="798" x2="1190" y2="798" stroke="#1e293b" stroke-width="2" marker-end="url(#arrow)" /><line x1="820" y1="798" x2="770" y2="798" stroke="#1e293b" stroke-width="2" marker-end="url(#arrow)" /></svg>